# xmcd CD database file
#
# Track frame offsets:
#	150
#	16797
#	43880
#	79607
#	98382
#	130640
#	146600
#	168295
#	186320
#	205485
#	223137
#
# Disc length: 3291 seconds
#
# Revision: 1
# Processed by: cddbd v1.5.2PL0 Copyright (c) Steve Scherf et al.
# Submitted via: CDex 1.70beta3
#
DISCID=920cd90b
DTITLE=赤松敏弘 - シナジー
DYEAR=1900
DGENRE=Jazz
TTITLE0=ﾀﾞﾎｰﾄﾞ
TTITLE1=ﾊﾞｲレット・レイズ
TTITLE2=ジョピンに捧ぐ
TTITLE3=リアル・ライフ
TTITLE4=ライク・サムソン・・・
TTITLE5=バードソング
TTITLE6=ソフティ・・・
TTITLE7=リダイアル
TTITLE8=ルッキング
TTITLE9=ドルフィン・・・
TTITLE10=フリッグ
EXTD=
EXTT0=
EXTT1=
EXTT2=
EXTT3=
EXTT4=
EXTT5=
EXTT6=
EXTT7=
EXTT8=
EXTT9=
EXTT10=
PLAYORDER=
